<mxfile host="app.diagrams.net" agent="Mozilla/5.0 (Windows NT 10.0; Win64; x64) AppleWebKit/537.36 (KHTML, like Gecko) Chrome/132.0.0.0 Safari/537.36" version="26.1.0">
  <diagram name="Page-1" id="Vv0K3-BnBrFbc0d-2h9b">
    <mxGraphModel dx="1050" dy="2757" grid="1" gridSize="10" guides="1" tooltips="1" connect="1" arrows="1" fold="1" page="1" pageScale="1" pageWidth="850" pageHeight="1100" math="0" shadow="0">
      <root>
        <mxCell id="0" />
        <mxCell id="1" parent="0" />
        <mxCell id="4KlARLDA2vbg__0GY1O0-53" style="edgeStyle=orthogonalEdgeStyle;rounded=0;orthogonalLoop=1;jettySize=auto;html=1;exitX=0.5;exitY=1;exitDx=0;exitDy=0;" edge="1" parent="1" source="4KlARLDA2vbg__0GY1O0-1" target="4KlARLDA2vbg__0GY1O0-16">
          <mxGeometry relative="1" as="geometry" />
        </mxCell>
        <mxCell id="4KlARLDA2vbg__0GY1O0-1" value="Start" style="ellipse;whiteSpace=wrap;html=1;" vertex="1" parent="1">
          <mxGeometry x="440" y="-2130" width="120" height="80" as="geometry" />
        </mxCell>
        <mxCell id="4KlARLDA2vbg__0GY1O0-54" value="" style="edgeStyle=orthogonalEdgeStyle;rounded=0;orthogonalLoop=1;jettySize=auto;html=1;" edge="1" parent="1" source="4KlARLDA2vbg__0GY1O0-16" target="4KlARLDA2vbg__0GY1O0-19">
          <mxGeometry relative="1" as="geometry" />
        </mxCell>
        <mxCell id="4KlARLDA2vbg__0GY1O0-16" value="Display Menu" style="rounded=0;whiteSpace=wrap;html=1;" vertex="1" parent="1">
          <mxGeometry x="440" y="-1990" width="120" height="60" as="geometry" />
        </mxCell>
        <mxCell id="4KlARLDA2vbg__0GY1O0-55" value="" style="edgeStyle=orthogonalEdgeStyle;rounded=0;orthogonalLoop=1;jettySize=auto;html=1;" edge="1" parent="1" source="4KlARLDA2vbg__0GY1O0-19" target="4KlARLDA2vbg__0GY1O0-22">
          <mxGeometry relative="1" as="geometry" />
        </mxCell>
        <mxCell id="4KlARLDA2vbg__0GY1O0-19" value="Selecting Choice of Pattern" style="rounded=0;whiteSpace=wrap;html=1;" vertex="1" parent="1">
          <mxGeometry x="440" y="-1860" width="120" height="60" as="geometry" />
        </mxCell>
        <mxCell id="4KlARLDA2vbg__0GY1O0-41" value="" style="edgeStyle=orthogonalEdgeStyle;rounded=0;orthogonalLoop=1;jettySize=auto;html=1;" edge="1" parent="1" source="4KlARLDA2vbg__0GY1O0-22" target="4KlARLDA2vbg__0GY1O0-38">
          <mxGeometry relative="1" as="geometry" />
        </mxCell>
        <mxCell id="4KlARLDA2vbg__0GY1O0-49" value="i==2" style="edgeLabel;html=1;align=center;verticalAlign=middle;resizable=0;points=[];" vertex="1" connectable="0" parent="4KlARLDA2vbg__0GY1O0-41">
          <mxGeometry x="-0.6" relative="1" as="geometry">
            <mxPoint as="offset" />
          </mxGeometry>
        </mxCell>
        <mxCell id="4KlARLDA2vbg__0GY1O0-42" style="edgeStyle=orthogonalEdgeStyle;rounded=0;orthogonalLoop=1;jettySize=auto;html=1;" edge="1" parent="1" source="4KlARLDA2vbg__0GY1O0-22" target="4KlARLDA2vbg__0GY1O0-36">
          <mxGeometry relative="1" as="geometry">
            <Array as="points">
              <mxPoint x="110" y="-1710" />
            </Array>
          </mxGeometry>
        </mxCell>
        <mxCell id="4KlARLDA2vbg__0GY1O0-52" value="i&amp;gt;4" style="edgeLabel;html=1;align=center;verticalAlign=middle;resizable=0;points=[];" vertex="1" connectable="0" parent="4KlARLDA2vbg__0GY1O0-42">
          <mxGeometry x="0.7591" relative="1" as="geometry">
            <mxPoint as="offset" />
          </mxGeometry>
        </mxCell>
        <mxCell id="4KlARLDA2vbg__0GY1O0-44" style="edgeStyle=orthogonalEdgeStyle;rounded=0;orthogonalLoop=1;jettySize=auto;html=1;entryX=0.5;entryY=0;entryDx=0;entryDy=0;" edge="1" parent="1" source="4KlARLDA2vbg__0GY1O0-22" target="4KlARLDA2vbg__0GY1O0-40">
          <mxGeometry relative="1" as="geometry" />
        </mxCell>
        <mxCell id="4KlARLDA2vbg__0GY1O0-47" value="i==4" style="edgeLabel;html=1;align=center;verticalAlign=middle;resizable=0;points=[];" vertex="1" connectable="0" parent="4KlARLDA2vbg__0GY1O0-44">
          <mxGeometry x="0.5824" y="1" relative="1" as="geometry">
            <mxPoint as="offset" />
          </mxGeometry>
        </mxCell>
        <mxCell id="4KlARLDA2vbg__0GY1O0-45" style="edgeStyle=orthogonalEdgeStyle;rounded=0;orthogonalLoop=1;jettySize=auto;html=1;entryX=0.5;entryY=0;entryDx=0;entryDy=0;" edge="1" parent="1" source="4KlARLDA2vbg__0GY1O0-22" target="4KlARLDA2vbg__0GY1O0-39">
          <mxGeometry relative="1" as="geometry" />
        </mxCell>
        <mxCell id="4KlARLDA2vbg__0GY1O0-48" value="i==1" style="edgeLabel;html=1;align=center;verticalAlign=middle;resizable=0;points=[];" vertex="1" connectable="0" parent="4KlARLDA2vbg__0GY1O0-45">
          <mxGeometry x="0.2588" y="1" relative="1" as="geometry">
            <mxPoint as="offset" />
          </mxGeometry>
        </mxCell>
        <mxCell id="4KlARLDA2vbg__0GY1O0-22" value="if i ?" style="rhombus;whiteSpace=wrap;html=1;" vertex="1" parent="1">
          <mxGeometry x="460" y="-1750" width="80" height="80" as="geometry" />
        </mxCell>
        <mxCell id="4KlARLDA2vbg__0GY1O0-30" value="Text" style="text;html=1;align=center;verticalAlign=middle;resizable=0;points=[];autosize=1;strokeColor=none;fillColor=none;" vertex="1" parent="1">
          <mxGeometry x="490" y="-955" width="50" height="30" as="geometry" />
        </mxCell>
        <mxCell id="4KlARLDA2vbg__0GY1O0-56" style="edgeStyle=orthogonalEdgeStyle;rounded=0;orthogonalLoop=1;jettySize=auto;html=1;entryX=0;entryY=0.5;entryDx=0;entryDy=0;" edge="1" parent="1" source="4KlARLDA2vbg__0GY1O0-36" target="4KlARLDA2vbg__0GY1O0-16">
          <mxGeometry relative="1" as="geometry">
            <mxPoint x="20" y="-1960" as="targetPoint" />
            <Array as="points">
              <mxPoint x="30" y="-1590" />
              <mxPoint x="30" y="-1960" />
            </Array>
          </mxGeometry>
        </mxCell>
        <mxCell id="4KlARLDA2vbg__0GY1O0-36" value="Default" style="shape=parallelogram;perimeter=parallelogramPerimeter;whiteSpace=wrap;html=1;fixedSize=1;" vertex="1" parent="1">
          <mxGeometry x="50" y="-1620" width="120" height="60" as="geometry" />
        </mxCell>
        <mxCell id="4KlARLDA2vbg__0GY1O0-59" style="edgeStyle=orthogonalEdgeStyle;rounded=0;orthogonalLoop=1;jettySize=auto;html=1;exitX=0.5;exitY=1;exitDx=0;exitDy=0;entryX=0.5;entryY=0;entryDx=0;entryDy=0;" edge="1" parent="1" source="4KlARLDA2vbg__0GY1O0-37" target="4KlARLDA2vbg__0GY1O0-58">
          <mxGeometry relative="1" as="geometry" />
        </mxCell>
        <mxCell id="4KlARLDA2vbg__0GY1O0-37" value="Rectangle" style="shape=parallelogram;perimeter=parallelogramPerimeter;whiteSpace=wrap;html=1;fixedSize=1;" vertex="1" parent="1">
          <mxGeometry x="220" y="-1620" width="120" height="60" as="geometry" />
        </mxCell>
        <mxCell id="4KlARLDA2vbg__0GY1O0-63" style="edgeStyle=orthogonalEdgeStyle;rounded=0;orthogonalLoop=1;jettySize=auto;html=1;entryX=0.5;entryY=0;entryDx=0;entryDy=0;" edge="1" parent="1" source="4KlARLDA2vbg__0GY1O0-38" target="4KlARLDA2vbg__0GY1O0-58">
          <mxGeometry relative="1" as="geometry">
            <Array as="points">
              <mxPoint x="450" y="-1560" />
              <mxPoint x="450" y="-1560" />
            </Array>
          </mxGeometry>
        </mxCell>
        <mxCell id="4KlARLDA2vbg__0GY1O0-38" value="Inverted Triangle" style="shape=parallelogram;perimeter=parallelogramPerimeter;whiteSpace=wrap;html=1;fixedSize=1;" vertex="1" parent="1">
          <mxGeometry x="400" y="-1620" width="120" height="60" as="geometry" />
        </mxCell>
        <mxCell id="4KlARLDA2vbg__0GY1O0-62" style="edgeStyle=orthogonalEdgeStyle;rounded=0;orthogonalLoop=1;jettySize=auto;html=1;entryX=0.5;entryY=0;entryDx=0;entryDy=0;" edge="1" parent="1" source="4KlARLDA2vbg__0GY1O0-39" target="4KlARLDA2vbg__0GY1O0-58">
          <mxGeometry relative="1" as="geometry">
            <Array as="points">
              <mxPoint x="620" y="-1510" />
              <mxPoint x="450" y="-1510" />
            </Array>
          </mxGeometry>
        </mxCell>
        <mxCell id="4KlARLDA2vbg__0GY1O0-39" value="Trianlge" style="shape=parallelogram;perimeter=parallelogramPerimeter;whiteSpace=wrap;html=1;fixedSize=1;" vertex="1" parent="1">
          <mxGeometry x="560" y="-1620" width="120" height="60" as="geometry" />
        </mxCell>
        <mxCell id="4KlARLDA2vbg__0GY1O0-61" style="edgeStyle=orthogonalEdgeStyle;rounded=0;orthogonalLoop=1;jettySize=auto;html=1;" edge="1" parent="1" source="4KlARLDA2vbg__0GY1O0-40" target="4KlARLDA2vbg__0GY1O0-58">
          <mxGeometry relative="1" as="geometry">
            <Array as="points">
              <mxPoint x="790" y="-1490" />
              <mxPoint x="450" y="-1490" />
            </Array>
          </mxGeometry>
        </mxCell>
        <mxCell id="4KlARLDA2vbg__0GY1O0-40" value="Square" style="shape=parallelogram;perimeter=parallelogramPerimeter;whiteSpace=wrap;html=1;fixedSize=1;" vertex="1" parent="1">
          <mxGeometry x="730" y="-1620" width="120" height="60" as="geometry" />
        </mxCell>
        <mxCell id="4KlARLDA2vbg__0GY1O0-43" style="edgeStyle=orthogonalEdgeStyle;rounded=0;orthogonalLoop=1;jettySize=auto;html=1;entryX=0.59;entryY=-0.05;entryDx=0;entryDy=0;entryPerimeter=0;" edge="1" parent="1" source="4KlARLDA2vbg__0GY1O0-22" target="4KlARLDA2vbg__0GY1O0-37">
          <mxGeometry relative="1" as="geometry" />
        </mxCell>
        <mxCell id="4KlARLDA2vbg__0GY1O0-50" value="i==3" style="edgeLabel;html=1;align=center;verticalAlign=middle;resizable=0;points=[];" vertex="1" connectable="0" parent="4KlARLDA2vbg__0GY1O0-43">
          <mxGeometry x="0.5941" y="-1" relative="1" as="geometry">
            <mxPoint as="offset" />
          </mxGeometry>
        </mxCell>
        <mxCell id="4KlARLDA2vbg__0GY1O0-58" value="Stop" style="ellipse;whiteSpace=wrap;html=1;" vertex="1" parent="1">
          <mxGeometry x="390" y="-1430" width="120" height="80" as="geometry" />
        </mxCell>
      </root>
    </mxGraphModel>
  </diagram>
</mxfile>
